# xmcd CD database file
# Copyright (C) 1997 Ti Kan
#
# Track frame offsets:
#  182
#  15522
#  29735
#  42817
#  72307
#  84177
#  98385
#  115537
#  132020
#  147055
#  160877
#  171677
#
# Disc length: 2473 seconds
#
# Revision: 1
# Processed by: cddbd v1.4b41PL1 Copyright (c) Steve Scherf et al.
# Submitted via: CDWizzard Release:4.24
#
DISCID=9009a70c
DTITLE=Benny Goodman - Big Band Dance Party:  The Music Of Benny Goodman
DYEAR=1900
DGENRE=
TTITLE0=Jersey Bounce
TTITLE1=And The Angels Sing
TTITLE2=Careless Love
TTITLE3=Sing, Sing, Sing
TTITLE4=Clementine
TTITLE5=Air Mailed
TTITLE6=Christopher Columbus
TTITLE7=Stompin' At The Savoy
TTITLE8=Lonesone Road
TTITLE9=A Slick One
TTITLE10=Why Don't You Do Right
TTITLE11=When The Saints Go Marchin' In
EXTD=
EXTT0=
EXTT1=
EXTT2=
EXTT3=
EXTT4=
EXTT5=
EXTT6=
EXTT7=
EXTT8=
EXTT9=
EXTT10=
EXTT11=
PLAYORDER=
